<svg width="32" height="14" viewBox="0 0 32 14" fill="none" xmlns="http://www.w3.org/2000/svg">
<path d="M0.869688 13V1.216H4.42169V2.92C4.77369 2.312 5.25369 1.84 5.86169 1.504C6.48569 1.152 7.20569 0.975999 8.02169 0.975999C8.85369 0.975999 9.55769 1.16 10.1337 1.528C10.7257 1.896 11.1737 2.456 11.4777 3.208C11.8457 2.504 12.3737 1.96 13.0617 1.576C13.7657 1.176 14.5417 0.975999 15.3897 0.975999C16.7337 0.975999 17.7337 1.384 18.3897 2.2C19.0457 3 19.3737 4.24 19.3737 5.92V13H15.7497V6.04C15.7497 5.256 15.6217 4.688 15.3657 4.336C15.1257 3.968 14.7097 3.784 14.1177 3.784C13.4297 3.784 12.8937 4.024 12.5097 4.504C12.1257 4.984 11.9337 5.664 11.9337 6.544V13H8.30969V6.04C8.30969 5.256 8.18169 4.688 7.92569 4.336C7.66969 3.968 7.25369 3.784 6.67769 3.784C5.98969 3.784 5.45369 4.024 5.06969 4.504C4.68569 4.984 4.49369 5.664 4.49369 6.544V13H0.869688ZM26.6618 13.264C25.6218 13.264 24.6538 13.144 23.7578 12.904C22.8618 12.664 22.1178 12.336 21.5258 11.92L22.3898 9.568C22.9818 9.936 23.6538 10.232 24.4058 10.456C25.1738 10.664 25.9338 10.768 26.6858 10.768C27.3578 10.768 27.8538 10.664 28.1738 10.456C28.4938 10.232 28.6538 9.944 28.6538 9.592C28.6538 9.032 28.2458 8.68 27.4298 8.536L24.9098 8.08C23.9018 7.904 23.1338 7.544 22.6058 7C22.0778 6.456 21.8138 5.744 21.8138 4.864C21.8138 4.064 22.0378 3.376 22.4858 2.8C22.9338 2.224 23.5498 1.776 24.3338 1.456C25.1178 1.136 26.0218 0.975999 27.0458 0.975999C27.8938 0.975999 28.7178 1.088 29.5178 1.312C30.3178 1.52 31.0058 1.856 31.5818 2.32L30.6698 4.648C30.1898 4.296 29.6138 4.008 28.9418 3.784C28.2858 3.56 27.6698 3.448 27.0938 3.448C26.3738 3.448 25.8538 3.568 25.5338 3.808C25.2138 4.032 25.0538 4.32 25.0538 4.672C25.0538 5.232 25.4298 5.584 26.1818 5.728L28.7018 6.184C29.7418 6.36 30.5338 6.712 31.0778 7.24C31.6218 7.752 31.8938 8.456 31.8938 9.352C31.8938 10.584 31.4138 11.544 30.4538 12.232C29.4938 12.92 28.2298 13.264 26.6618 13.264Z" fill="#F07167"/>
</svg>
